<svg width="120" height="120" viewBox="0 0 120 120" fill="none" xmlns="http://www.w3.org/2000/svg">
<path d="M60 70H65C70.5 70 75 65.5 75 60V10H30C22.5 10 15.95 14.15 12.55 20.25" stroke="black" stroke-width="4" stroke-linecap="round" stroke-linejoin="round"/>
<path d="M10 85C10 93.3 16.7 100 25 100H30C30 94.5 34.5 90 40 90C45.5 90 50 94.5 50 100H70C70 94.5 74.5 90 80 90C85.5 90 90 94.5 90 100H95C103.3 100 110 93.3 110 85V70H95C92.25 70 90 67.75 90 65V50C90 47.25 92.25 45 95 45H101.45L92.9 30.05C92.0191 28.5201 90.7518 27.2484 89.225 26.3622C87.6982 25.4759 85.9654 25.0062 84.2 25H75V60C75 65.5 70.5 70 65 70H60" stroke="black" stroke-width="4" stroke-linecap="round" stroke-linejoin="round"/>
<path d="M10 40H40M10 55H30M10 70H20M40 110C42.6522 110 45.1957 108.946 47.0711 107.071C48.9464 105.196 50 102.652 50 100C50 97.3478 48.9464 94.8043 47.0711 92.9289C45.1957 91.0536 42.6522 90 40 90C37.3478 90 34.8043 91.0536 32.9289 92.9289C31.0536 94.8043 30 97.3478 30 100C30 102.652 31.0536 105.196 32.9289 107.071C34.8043 108.946 37.3478 110 40 110V110ZM80 110C82.6522 110 85.1957 108.946 87.0711 107.071C88.9464 105.196 90 102.652 90 100C90 97.3478 88.9464 94.8043 87.0711 92.9289C85.1957 91.0536 82.6522 90 80 90C77.3478 90 74.8043 91.0536 72.9289 92.9289C71.0536 94.8043 70 97.3478 70 100C70 102.652 71.0536 105.196 72.9289 107.071C74.8043 108.946 77.3478 110 80 110ZM110 60V70H95C92.25 70 90 67.75 90 65V50C90 47.25 92.25 45 95 45H101.45L110 60Z" stroke="black" stroke-width="4" stroke-linecap="round" stroke-linejoin="round"/>
</svg>
