<svg width="32" height="32" viewBox="0 0 32 32" fill="none" xmlns="http://www.w3.org/2000/svg">
<path d="M30.6666 4.01341C29.3898 4.91404 27.9761 5.60289 26.48 6.05341C25.677 5.13009 24.6098 4.47566 23.4227 4.17864C22.2356 3.88162 20.986 3.95634 19.8428 4.39268C18.6995 4.82902 17.7179 5.60594 17.0306 6.61836C16.3433 7.63078 15.9836 8.82986 16 10.0534V11.3867C13.6568 11.4475 11.335 10.9278 9.24132 9.874C7.14764 8.82018 5.34707 7.26492 3.99998 5.34674C3.99998 5.34674 -1.33335 17.3467 10.6666 22.6801C7.92068 24.544 4.64952 25.4786 1.33331 25.3467C13.3333 32.0134 28 25.3467 28 10.0134C27.9988 9.64201 27.963 9.27153 27.8933 8.90674C29.2541 7.56473 30.2144 5.87036 30.6666 4.01341V4.01341Z" fill="white"/>
</svg>
